<svg xmlns="http://www.w3.org/2000/svg" xmlns:xlink="http://www.w3.org/1999/xlink" width="1024" zoomAndPan="magnify" viewBox="0 0 768 767.999994" height="1024" preserveAspectRatio="xMidYMid meet" version="1.0"><defs><clipPath id="2e9edd25d5"><path d="M 230.398438 230.398438 L 537.898438 230.398438 L 537.898438 537.898438 L 230.398438 537.898438 Z M 230.398438 230.398438 " clip-rule="nonzero"/></clipPath></defs><path stroke-linecap="butt" transform="matrix(13.977272, 0, 0, 13.977272, 216.422731, 216.422748)" fill="none" stroke-linejoin="round" d="M 17.999864 6.499887 C 17.724025 6.499887 17.499889 6.27603 17.499889 5.999912 C 17.499889 5.723795 17.724025 5.499938 17.999864 5.499938 " stroke="#000000" stroke-width="1" stroke-opacity="1" stroke-miterlimit="4"/><path stroke-linecap="butt" transform="matrix(13.977272, 0, 0, 13.977272, 216.422731, 216.422748)" fill="none" stroke-linejoin="round" d="M 17.999864 6.499887 C 18.275981 6.499887 18.500118 6.27603 18.500118 5.999912 C 18.500118 5.723795 18.275981 5.499938 17.999864 5.499938 " stroke="#000000" stroke-width="1" stroke-opacity="1" stroke-miterlimit="4"/><path stroke-linecap="butt" transform="matrix(13.977272, 0, 0, 13.977272, 216.422731, 216.422748)" fill="none" stroke-linejoin="round" d="M 16.999914 11.999887 C 16.999914 12.081773 16.997958 12.163658 16.994045 12.245263 C 16.989853 12.327149 16.983984 12.408754 16.97588 12.490081 C 16.967775 12.571407 16.957994 12.652733 16.945976 12.73378 C 16.933959 12.814547 16.919985 12.895314 16.904056 12.975523 C 16.887846 13.055731 16.86996 13.13566 16.850118 13.21503 C 16.830275 13.2944 16.808476 13.373211 16.784721 13.451463 C 16.760966 13.529715 16.735255 13.607408 16.707587 13.684542 C 16.680199 13.761397 16.650575 13.837692 16.619274 13.913429 C 16.587973 13.988887 16.554996 14.063785 16.520062 14.137845 C 16.484848 14.211625 16.448237 14.284847 16.40967 14.356951 C 16.371103 14.429054 16.33058 14.500319 16.288659 14.570467 C 16.246459 14.640614 16.202861 14.709923 16.157308 14.777835 C 16.111754 14.846026 16.064802 14.912819 16.016174 14.978495 C 15.967267 15.044171 15.916962 15.108729 15.86498 15.17189 C 15.813278 15.23533 15.75962 15.297093 15.704843 15.357738 C 15.649787 15.418384 15.593334 15.477632 15.535483 15.535482 C 15.477633 15.593333 15.418385 15.649786 15.357739 15.704842 C 15.297094 15.759618 15.235331 15.813277 15.171891 15.864979 C 15.10873 15.916961 15.044172 15.967266 14.978497 16.016173 C 14.912821 16.064801 14.845748 16.111752 14.777836 16.157306 C 14.709924 16.20286 14.640615 16.246458 14.570468 16.288658 C 14.500321 16.330579 14.429055 16.371102 14.356952 16.409669 C 14.284848 16.448236 14.211627 16.484847 14.137846 16.52006 C 14.063786 16.554994 13.988888 16.587972 13.91343 16.619273 C 13.837694 16.650574 13.761398 16.680198 13.684543 16.707586 C 13.607409 16.735254 13.529716 16.760965 13.451464 16.78472 C 13.373212 16.808475 13.294401 16.830274 13.215031 16.850116 C 13.135661 16.869959 13.055732 16.887845 12.975524 16.904054 C 12.895316 16.919984 12.814548 16.933958 12.733781 16.945975 C 12.652734 16.957992 12.571408 16.967774 12.490082 16.975879 C 12.408756 16.983983 12.32715 16.989852 12.245265 16.994044 C 12.163659 16.997957 12.081774 16.999913 11.999889 16.999913 C 11.918283 16.999913 11.836398 16.997957 11.754792 16.994044 C 11.672907 16.989852 11.591301 16.983983 11.509975 16.975879 C 11.428369 16.967774 11.347323 16.957992 11.266276 16.945975 C 11.185509 16.933958 11.104741 16.919984 11.024533 16.904054 C 10.944325 16.887845 10.864396 16.869959 10.785026 16.850116 C 10.705656 16.830274 10.626845 16.808475 10.548593 16.78472 C 10.470341 16.760965 10.392648 16.735254 10.315514 16.707586 C 10.238379 16.680198 10.162084 16.650574 10.086626 16.619273 C 10.01089 16.587972 9.936271 16.554994 9.862211 16.52006 C 9.788151 16.484847 9.715209 16.448236 9.643105 16.409669 C 9.570722 16.371102 9.499736 16.330579 9.429589 16.288658 C 9.359162 16.246458 9.290132 16.20286 9.222221 16.157306 C 9.15403 16.111752 9.087236 16.064801 9.02156 16.016173 C 8.955884 15.967266 8.891326 15.916961 8.828166 15.864979 C 8.764726 15.813277 8.702963 15.759618 8.642317 15.704842 C 8.581672 15.649786 8.522424 15.593333 8.464573 15.535482 C 8.406723 15.477632 8.35027 15.418384 8.295214 15.357738 C 8.240158 15.297093 8.186779 15.23533 8.135076 15.17189 C 8.083095 15.108729 8.03279 15.044171 7.983882 14.978495 C 7.935254 14.912819 7.888024 14.846026 7.842749 14.777835 C 7.797195 14.709923 7.753318 14.640614 7.711398 14.570467 C 7.669197 14.500319 7.628953 14.429054 7.590386 14.356951 C 7.551819 14.284847 7.514929 14.211625 7.479995 14.137845 C 7.445061 14.063785 7.411804 13.988887 7.380503 13.913429 C 7.349202 13.837692 7.319858 13.761397 7.29219 13.684542 C 7.264802 13.607408 7.239091 13.529715 7.215336 13.451463 C 7.19158 13.373211 7.169782 13.2944 7.149939 13.21503 C 7.130097 13.13566 7.111931 13.055731 7.096001 12.975523 C 7.080071 12.895314 7.066098 12.814547 7.05408 12.73378 C 7.042063 12.652733 7.032002 12.571407 7.024177 12.490081 C 7.016072 12.408754 7.009924 12.327149 7.006011 12.245263 C 7.002099 12.163658 6.999863 12.081773 6.999863 11.999887 C 6.999863 11.918282 7.002099 11.836397 7.006011 11.754791 C 7.009924 11.672906 7.016072 11.5913 7.024177 11.509974 C 7.032002 11.428368 7.042063 11.347321 7.05408 11.266275 C 7.066098 11.185507 7.080071 11.10474 7.096001 11.024532 C 7.111931 10.944323 7.130097 10.864394 7.149939 10.785025 C 7.169782 10.705655 7.19158 10.626844 7.215336 10.548592 C 7.239091 10.47034 7.264802 10.392646 7.29219 10.315512 C 7.319858 10.238378 7.349202 10.162082 7.380503 10.086625 C 7.411804 10.010888 7.445061 9.936269 7.479995 9.862209 C 7.514929 9.788149 7.551819 9.715207 7.590386 9.643104 C 7.628953 9.570721 7.669197 9.499735 7.711398 9.429587 C 7.753318 9.359161 7.797195 9.290131 7.842749 9.22222 C 7.888024 9.154029 7.935254 9.087235 7.983882 9.021559 C 8.03279 8.955883 8.083095 8.891325 8.135076 8.828165 C 8.186779 8.764725 8.240158 8.702961 8.295214 8.642316 C 8.35027 8.581671 8.406723 8.522423 8.464573 8.464572 C 8.522424 8.406722 8.581672 8.350268 8.642317 8.295212 C 8.702963 8.240157 8.764726 8.186777 8.828166 8.135075 C 8.891326 8.083094 8.955884 8.032789 9.02156 7.983881 C 9.087236 7.935253 9.15403 7.888022 9.222221 7.842748 C 9.290132 7.797194 9.359162 7.753317 9.429589 7.711396 C 9.499736 7.669196 9.570722 7.628952 9.643105 7.590385 C 9.715209 7.551818 9.788151 7.514928 9.862211 7.479994 C 9.936271 7.44506 10.01089 7.411803 10.086626 7.380502 C 10.162084 7.349201 10.238379 7.319857 10.315514 7.292189 C 10.392648 7.264801 10.470341 7.239089 10.548593 7.215334 C 10.626845 7.191579 10.705656 7.16978 10.785026 7.149938 C 10.864396 7.130095 10.944325 7.11193 11.024533 7.096 C 11.104741 7.08007 11.185509 7.066096 11.266276 7.054079 C 11.347323 7.042062 11.428369 7.032001 11.509975 7.024176 C 11.591301 7.016071 11.672907 7.009923 11.754792 7.00601 C 11.836398 7.002098 11.918283 6.999862 11.999889 6.999862 C 12.081774 6.999862 12.163659 7.002098 12.245265 7.00601 C 12.32715 7.009923 12.408756 7.016071 12.490082 7.024176 C 12.571408 7.032001 12.652734 7.042062 12.733781 7.054079 C 12.814548 7.066096 12.895316 7.08007 12.975524 7.096 C 13.055732 7.11193 13.135661 7.130095 13.215031 7.149938 C 13.294401 7.16978 13.373212 7.191579 13.451464 7.215334 C 13.529716 7.239089 13.607409 7.264801 13.684543 7.292189 C 13.761398 7.319857 13.837694 7.349201 13.91343 7.380502 C 13.988888 7.411803 14.063786 7.44506 14.137846 7.479994 C 14.211627 7.514928 14.284848 7.551818 14.356952 7.590385 C 14.429055 7.628952 14.500321 7.669196 14.570468 7.711396 C 14.640615 7.753317 14.709924 7.797194 14.777836 7.842748 C 14.845748 7.888022 14.912821 7.935253 14.978497 7.983881 C 15.044172 8.032789 15.10873 8.083094 15.171891 8.135075 C 15.235331 8.186777 15.297094 8.240157 15.357739 8.295212 C 15.418385 8.350268 15.477633 8.406722 15.535483 8.464572 C 15.593334 8.522423 15.649787 8.581671 15.704843 8.642316 C 15.75962 8.702961 15.813278 8.764725 15.86498 8.828165 C 15.916962 8.891325 15.967267 8.955883 16.016174 9.021559 C 16.064802 9.087235 16.111754 9.154029 16.157308 9.22222 C 16.202861 9.290131 16.246459 9.359161 16.288659 9.429587 C 16.33058 9.499735 16.371103 9.570721 16.40967 9.643104 C 16.448237 9.715207 16.484848 9.788149 16.520062 9.862209 C 16.554996 9.936269 16.587973 10.010888 16.619274 10.086625 C 16.650575 10.162082 16.680199 10.238378 16.707587 10.315512 C 16.735255 10.392646 16.760966 10.47034 16.784721 10.548592 C 16.808476 10.626844 16.830275 10.705655 16.850118 10.785025 C 16.86996 10.864394 16.887846 10.944323 16.904056 11.024532 C 16.919985 11.10474 16.933959 11.185507 16.945976 11.266275 C 16.957994 11.347321 16.967775 11.428368 16.97588 11.509974 C 16.983984 11.5913 16.989853 11.672906 16.994045 11.754791 C 16.997958 11.836397 16.999914 11.918282 16.999914 11.999887 Z M 16.999914 11.999887 " stroke="#000000" stroke-width="1" stroke-opacity="1" stroke-miterlimit="4"/><g clip-path="url(#2e9edd25d5)"><path stroke-linecap="butt" transform="matrix(13.977272, 0, 0, 13.977272, 216.422731, 216.422748)" fill="none" stroke-linejoin="miter" d="M 16.49994 1.499861 L 7.500117 1.499861 C 4.186423 1.499861 1.499863 4.186422 1.499863 7.500116 L 1.499863 16.499938 C 1.499863 19.813633 4.186423 22.499913 7.500117 22.499913 L 16.49994 22.499913 C 19.813634 22.499913 22.499915 19.813633 22.499915 16.499938 L 22.499915 7.500116 C 22.499915 4.186422 19.813634 1.499861 16.49994 1.499861 Z M 16.49994 1.499861 " stroke="#000000" stroke-width="1" stroke-opacity="1" stroke-miterlimit="4"/></g></svg>