<svg xmlns="http://www.w3.org/2000/svg" xmlns:xlink="http://www.w3.org/1999/xlink" width="1024" zoomAndPan="magnify" viewBox="0 0 768 767.999994" height="1024" preserveAspectRatio="xMidYMid meet" version="1.0"><defs><clipPath id="02bf8973ed"><path d="M 230.398438 230.398438 L 537.898438 230.398438 L 537.898438 537.898438 L 230.398438 537.898438 Z M 230.398438 230.398438 " clip-rule="nonzero"/></clipPath></defs><path fill="#000000" d="M 427.492188 298.664062 L 384.148438 360.746094 L 340.808594 298.664062 L 308.226562 298.664062 L 367.859375 384.148438 L 308.226562 469.636719 L 340.808594 469.636719 L 384.148438 407.554688 L 427.492188 469.636719 L 460.074219 469.636719 L 400.441406 384.148438 L 460.074219 298.664062 Z M 427.492188 298.664062 " fill-opacity="1" fill-rule="nonzero"/><g clip-path="url(#02bf8973ed)"><path fill="#000000" d="M 384.148438 230.398438 C 343.082031 230.398438 304.472656 246.394531 275.433594 275.433594 C 246.390625 304.472656 230.398438 343.082031 230.398438 384.148438 C 230.398438 425.21875 246.394531 463.828125 275.433594 492.867188 C 304.472656 521.90625 343.082031 537.898438 384.148438 537.898438 C 425.21875 537.898438 463.828125 521.90625 492.867188 492.867188 C 521.90625 463.828125 537.898438 425.21875 537.898438 384.148438 C 537.898438 343.082031 521.90625 304.472656 492.867188 275.433594 C 463.828125 246.390625 425.21875 230.398438 384.148438 230.398438 Z M 384.148438 515.121094 C 311.933594 515.121094 253.179688 456.367188 253.179688 384.148438 C 253.179688 311.933594 311.933594 253.179688 384.148438 253.179688 C 456.367188 253.179688 515.121094 311.933594 515.121094 384.148438 C 515.121094 456.367188 456.367188 515.121094 384.148438 515.121094 Z M 384.148438 515.121094 " fill-opacity="1" fill-rule="nonzero"/></g></svg>