<svg xmlns="http://www.w3.org/2000/svg" xmlns:xlink="http://www.w3.org/1999/xlink" width="1024" zoomAndPan="magnify" viewBox="0 0 768 767.999994" height="1024" preserveAspectRatio="xMidYMid meet" version="1.0"><defs><clipPath id="362dca2fbd"><path d="M 230.398438 326 L 304 326 L 304 344 L 230.398438 344 Z M 230.398438 326 " clip-rule="nonzero"/></clipPath><clipPath id="d4248cc415"><path d="M 276.523438 255.960938 L 537.898438 255.960938 L 537.898438 512.414062 L 276.523438 512.414062 Z M 276.523438 255.960938 " clip-rule="nonzero"/></clipPath><clipPath id="8fd38f4c08"><path d="M 219.300781 306.300781 L 324.199219 306.300781 L 324.199219 450.199219 L 219.300781 450.199219 Z M 219.300781 306.300781 " clip-rule="nonzero"/></clipPath><clipPath id="7c005b3185"><path d="M 336.300781 464.800781 L 373.449219 464.800781 L 373.449219 501.949219 L 336.300781 501.949219 Z M 336.300781 464.800781 " clip-rule="nonzero"/></clipPath><clipPath id="41c5ca5b83"><path d="M 354.875 464.800781 C 344.617188 464.800781 336.300781 473.117188 336.300781 483.375 C 336.300781 493.632812 344.617188 501.949219 354.875 501.949219 C 365.132812 501.949219 373.449219 493.632812 373.449219 483.375 C 373.449219 473.117188 365.132812 464.800781 354.875 464.800781 Z M 354.875 464.800781 " clip-rule="nonzero"/></clipPath><clipPath id="8c2e4f8e1d"><path d="M 430.800781 464.800781 L 467.949219 464.800781 L 467.949219 501.949219 L 430.800781 501.949219 Z M 430.800781 464.800781 " clip-rule="nonzero"/></clipPath><clipPath id="6245a38adc"><path d="M 449.375 464.800781 C 439.117188 464.800781 430.800781 473.117188 430.800781 483.375 C 430.800781 493.632812 439.117188 501.949219 449.375 501.949219 C 459.632812 501.949219 467.949219 493.632812 467.949219 483.375 C 467.949219 473.117188 459.632812 464.800781 449.375 464.800781 Z M 449.375 464.800781 " clip-rule="nonzero"/></clipPath></defs><path fill="#000000" d="M 294.914062 400.789062 L 250.375 400.789062 C 245.761719 400.789062 242.03125 404.484375 242.03125 409.097656 C 242.03125 413.707031 245.761719 417.402344 250.375 417.402344 L 294.914062 417.402344 C 299.523438 417.402344 303.257812 413.707031 303.257812 409.097656 C 303.257812 404.484375 299.523438 400.789062 294.914062 400.789062 " fill-opacity="1" fill-rule="nonzero"/><path fill="#000000" d="M 315.722656 363.875 L 240.832031 363.875 C 236.222656 363.875 232.484375 367.566406 232.484375 372.179688 C 232.484375 376.789062 236.222656 380.484375 240.832031 380.484375 L 315.722656 380.484375 C 320.332031 380.484375 324.066406 376.789062 324.066406 372.179688 C 324.066406 367.566406 320.332031 363.875 315.722656 363.875 " fill-opacity="1" fill-rule="nonzero"/><g clip-path="url(#362dca2fbd)"><path fill="#000000" d="M 238.742188 343.570312 L 294.914062 343.570312 C 299.523438 343.570312 303.257812 339.566406 303.257812 334.953125 C 303.257812 330.34375 299.523438 326.339844 294.914062 326.339844 L 238.742188 326.339844 C 234.136719 326.339844 230.398438 330.34375 230.398438 334.953125 C 230.398438 339.566406 234.136719 343.570312 238.742188 343.570312 " fill-opacity="1" fill-rule="nonzero"/></g><path fill="#000000" d="M 450.269531 491.261719 C 454.65625 491.261719 458.214844 487.699219 458.214844 483.308594 C 458.214844 478.917969 454.65625 475.359375 450.269531 475.359375 C 445.878906 475.359375 442.324219 478.917969 442.324219 483.308594 C 442.324219 487.699219 445.878906 491.261719 450.269531 491.261719 " fill-opacity="1" fill-rule="nonzero"/><path fill="#000000" d="M 346.457031 483.308594 C 346.457031 487.699219 350.015625 491.261719 354.402344 491.261719 C 358.789062 491.261719 362.347656 487.699219 362.347656 483.308594 C 362.347656 478.917969 358.789062 475.359375 354.402344 475.359375 C 350.015625 475.359375 346.457031 478.917969 346.457031 483.308594 " fill-opacity="1" fill-rule="nonzero"/><g clip-path="url(#d4248cc415)"><path fill="#000000" d="M 369.605469 483.308594 C 369.605469 491.699219 362.785156 498.519531 354.402344 498.519531 C 346.019531 498.519531 339.199219 491.699219 339.199219 483.308594 C 339.199219 474.921875 346.019531 468.097656 354.402344 468.097656 C 362.785156 468.097656 369.605469 474.921875 369.605469 483.308594 Z M 450.269531 468.097656 C 458.652344 468.097656 465.472656 474.921875 465.472656 483.308594 C 465.472656 491.699219 458.652344 498.519531 450.269531 498.519531 C 441.886719 498.519531 435.066406 491.699219 435.066406 483.308594 C 435.066406 474.921875 441.886719 468.097656 450.269531 468.097656 Z M 517.234375 311.574219 L 344.035156 311.574219 L 344.007812 311.304688 L 339.554688 284.726562 C 336.984375 269.40625 324.359375 258.085938 308.855469 257.234375 L 286.105469 255.972656 C 281.339844 255.703125 277.234375 259.367188 276.972656 264.152344 C 276.710938 268.9375 280.375 273.023438 285.15625 273.285156 L 307.90625 274.53125 C 315.253906 274.933594 321.234375 280.285156 322.457031 287.542969 L 340.488281 394.949219 C 341.199219 399.191406 344.871094 402.191406 349.027344 402.191406 C 349.503906 402.191406 349.988281 402.152344 350.472656 402.070312 C 355.195312 401.277344 358.382812 396.855469 357.585938 392.132812 L 346.949219 328.800781 L 517.234375 328.800781 C 518.65625 328.800781 519.492188 329.484375 519.863281 329.96875 C 520.234375 330.453125 520.800781 331.40625 520.433594 332.78125 L 498.445312 414.542969 C 496.628906 421.304688 490.472656 426.015625 483.476562 426.015625 L 370.40625 426.015625 C 356.617188 426.015625 345.40625 437.195312 345.40625 450.992188 L 345.40625 455.65625 C 347.863281 454.726562 351.191406 454.320312 354.335938 454.320312 C 354.347656 454.320312 354.359375 454.320312 354.371094 454.320312 C 351.238281 454.320312 348.226562 454.78125 345.398438 455.707031 C 333.757812 459.507812 325.328125 470.4375 325.328125 483.332031 C 325.328125 499.375 338.371094 512.414062 354.402344 512.414062 C 368.261719 512.414062 379.882812 502.648438 382.777344 489.640625 C 383.230469 487.613281 383.476562 485.503906 383.480469 483.34375 C 383.480469 483.351562 383.480469 483.207031 383.480469 483.21875 C 383.480469 485.394531 383.230469 487.546875 382.777344 489.390625 L 421.894531 489.390625 C 421.4375 487.546875 421.191406 485.390625 421.191406 483.21875 C 421.191406 483.207031 421.195312 483.273438 421.195312 483.261719 C 421.195312 485.425781 421.441406 487.566406 421.894531 489.597656 C 424.789062 502.605469 436.40625 512.382812 450.269531 512.382812 C 466.304688 512.382812 479.34375 499.339844 479.34375 483.300781 C 479.34375 467.257812 466.304688 454.214844 450.269531 454.214844 C 438.136719 454.214844 427.71875 461.601562 423.367188 472.191406 C 423.359375 472.210938 423.351562 472.164062 423.34375 472.164062 L 381.328125 472.164062 C 381.320312 472.164062 381.3125 472.214844 381.304688 472.191406 C 377.992188 464.132812 371.144531 457.921875 362.714844 455.398438 C 362.691406 455.390625 362.625 455.429688 362.625 455.425781 L 362.625 450.992188 C 362.625 446.761719 366.179688 443.246094 370.40625 443.246094 L 483.476562 443.246094 C 498.296875 443.246094 511.34375 433.277344 515.191406 418.957031 L 537.179688 337.203125 C 538.859375 330.945312 537.566406 324.609375 533.625 319.464844 C 529.6875 314.320312 523.710938 311.574219 517.234375 311.574219 " fill-opacity="1" fill-rule="nonzero"/></g><g clip-path="url(#8fd38f4c08)"><path fill="#ffffff" d="M 219.300781 306.300781 L 324.199219 306.300781 L 324.199219 450.128906 L 219.300781 450.128906 Z M 219.300781 306.300781 " fill-opacity="1" fill-rule="nonzero"/></g><g clip-path="url(#7c005b3185)"><g clip-path="url(#41c5ca5b83)"><path fill="#000000" d="M 336.300781 464.800781 L 373.449219 464.800781 L 373.449219 501.949219 L 336.300781 501.949219 Z M 336.300781 464.800781 " fill-opacity="1" fill-rule="nonzero"/></g></g><g clip-path="url(#8c2e4f8e1d)"><g clip-path="url(#6245a38adc)"><path fill="#000000" d="M 430.800781 464.800781 L 467.949219 464.800781 L 467.949219 501.949219 L 430.800781 501.949219 Z M 430.800781 464.800781 " fill-opacity="1" fill-rule="nonzero"/></g></g></svg>