<svg xmlns="http://www.w3.org/2000/svg" xmlns:xlink="http://www.w3.org/1999/xlink" width="500" zoomAndPan="magnify" viewBox="0 0 375 374.999991" height="500" preserveAspectRatio="xMidYMid meet" version="1.0"><defs><g/><clipPath id="3fe8c2fb9d"><path d="M 28 116 L 188 116 L 188 276 L 28 276 Z M 28 116 " clip-rule="nonzero"/></clipPath><clipPath id="3ed6ab00d6"><path d="M 107.824219 116.351562 L 187.375 195.902344 L 107.824219 275.449219 L 28.277344 195.902344 Z M 107.824219 116.351562 " clip-rule="nonzero"/></clipPath><clipPath id="5493fc6755"><path d="M 107.824219 116.351562 L 187.375 195.902344 L 107.824219 275.449219 L 28.277344 195.902344 Z M 107.824219 116.351562 " clip-rule="nonzero"/></clipPath><clipPath id="78b7a5c517"><path d="M 187 116 L 347 116 L 347 276 L 187 276 Z M 187 116 " clip-rule="nonzero"/></clipPath><clipPath id="f3b6fa8196"><path d="M 267.050781 116.351562 L 346.597656 195.902344 L 267.050781 275.449219 L 187.5 195.902344 Z M 267.050781 116.351562 " clip-rule="nonzero"/></clipPath><clipPath id="f745ffba22"><path d="M 267.050781 116.351562 L 346.597656 195.902344 L 267.050781 275.449219 L 187.5 195.902344 Z M 267.050781 116.351562 " clip-rule="nonzero"/></clipPath><clipPath id="5711053f88"><path d="M 125 206 L 192 206 L 192 273 L 125 273 Z M 125 206 " clip-rule="nonzero"/></clipPath><clipPath id="488471f1a4"><path d="M 120.585938 123.578125 L 198.546875 201.535156 L 120.585938 279.496094 L 42.628906 201.535156 Z M 120.585938 123.578125 " clip-rule="nonzero"/></clipPath><clipPath id="adce473842"><path d="M 120.585938 123.578125 L 198.546875 201.535156 L 120.585938 279.496094 L 42.628906 201.535156 Z M 120.585938 123.578125 " clip-rule="nonzero"/></clipPath><clipPath id="408cfd08b4"><path d="M 120.585938 123.578125 L 198.546875 201.535156 L 120.585938 279.496094 L 42.628906 201.535156 Z M 120.585938 123.578125 " clip-rule="nonzero"/></clipPath><clipPath id="83aa92be60"><path d="M 49 130 L 116 130 L 116 197 L 49 197 Z M 49 130 " clip-rule="nonzero"/></clipPath><clipPath id="01c64bb826"><path d="M 120.585938 123.578125 L 198.546875 201.535156 L 120.585938 279.496094 L 42.628906 201.535156 Z M 120.585938 123.578125 " clip-rule="nonzero"/></clipPath><clipPath id="db694fae1d"><path d="M 120.585938 123.578125 L 198.546875 201.535156 L 120.585938 279.496094 L 42.628906 201.535156 Z M 120.585938 123.578125 " clip-rule="nonzero"/></clipPath><clipPath id="cd371f16d6"><path d="M 120.585938 123.578125 L 198.546875 201.535156 L 120.585938 279.496094 L 42.628906 201.535156 Z M 120.585938 123.578125 " clip-rule="nonzero"/></clipPath><clipPath id="e4a2e918a3"><path d="M 125 130 L 192 130 L 192 197 L 125 197 Z M 125 130 " clip-rule="nonzero"/></clipPath><clipPath id="d766b89f18"><path d="M 120.585938 123.578125 L 198.546875 201.535156 L 120.585938 279.496094 L 42.628906 201.535156 Z M 120.585938 123.578125 " clip-rule="nonzero"/></clipPath><clipPath id="a44863bbad"><path d="M 120.585938 123.578125 L 198.546875 201.535156 L 120.585938 279.496094 L 42.628906 201.535156 Z M 120.585938 123.578125 " clip-rule="nonzero"/></clipPath><clipPath id="d7d873134c"><path d="M 120.585938 123.578125 L 198.546875 201.535156 L 120.585938 279.496094 L 42.628906 201.535156 Z M 120.585938 123.578125 " clip-rule="nonzero"/></clipPath><clipPath id="b238ae3dd7"><path d="M 49 206 L 116 206 L 116 273 L 49 273 Z M 49 206 " clip-rule="nonzero"/></clipPath><clipPath id="eda4501978"><path d="M 120.585938 123.578125 L 198.546875 201.535156 L 120.585938 279.496094 L 42.628906 201.535156 Z M 120.585938 123.578125 " clip-rule="nonzero"/></clipPath><clipPath id="90be4aa3ff"><path d="M 120.585938 123.578125 L 198.546875 201.535156 L 120.585938 279.496094 L 42.628906 201.535156 Z M 120.585938 123.578125 " clip-rule="nonzero"/></clipPath><clipPath id="e289760ba2"><path d="M 120.585938 123.578125 L 198.546875 201.535156 L 120.585938 279.496094 L 42.628906 201.535156 Z M 120.585938 123.578125 " clip-rule="nonzero"/></clipPath><clipPath id="7bbea8c271"><path d="M 189 194 L 199 194 L 199 209 L 189 209 Z M 189 194 " clip-rule="nonzero"/></clipPath><clipPath id="e2db8fe41c"><path d="M 120.585938 123.578125 L 198.546875 201.535156 L 120.585938 279.496094 L 42.628906 201.535156 Z M 120.585938 123.578125 " clip-rule="nonzero"/></clipPath><clipPath id="c7b9595155"><path d="M 120.585938 123.578125 L 198.546875 201.535156 L 120.585938 279.496094 L 42.628906 201.535156 Z M 120.585938 123.578125 " clip-rule="nonzero"/></clipPath><clipPath id="5e5dfec000"><path d="M 120.585938 123.578125 L 198.546875 201.535156 L 120.585938 279.496094 L 42.628906 201.535156 Z M 120.585938 123.578125 " clip-rule="nonzero"/></clipPath><clipPath id="96e5def254"><path d="M 113 123 L 128 123 L 128 134 L 113 134 Z M 113 123 " clip-rule="nonzero"/></clipPath><clipPath id="fe36b7a4d1"><path d="M 120.585938 123.578125 L 198.546875 201.535156 L 120.585938 279.496094 L 42.628906 201.535156 Z M 120.585938 123.578125 " clip-rule="nonzero"/></clipPath><clipPath id="368f8bd4a9"><path d="M 120.585938 123.578125 L 198.546875 201.535156 L 120.585938 279.496094 L 42.628906 201.535156 Z M 120.585938 123.578125 " clip-rule="nonzero"/></clipPath><clipPath id="e9f2133b47"><path d="M 120.585938 123.578125 L 198.546875 201.535156 L 120.585938 279.496094 L 42.628906 201.535156 Z M 120.585938 123.578125 " clip-rule="nonzero"/></clipPath><clipPath id="0d5f4dc2bb"><path d="M 113 270 L 128 270 L 128 280 L 113 280 Z M 113 270 " clip-rule="nonzero"/></clipPath><clipPath id="fc2f350c95"><path d="M 120.585938 123.578125 L 198.546875 201.535156 L 120.585938 279.496094 L 42.628906 201.535156 Z M 120.585938 123.578125 " clip-rule="nonzero"/></clipPath><clipPath id="654281bf24"><path d="M 120.585938 123.578125 L 198.546875 201.535156 L 120.585938 279.496094 L 42.628906 201.535156 Z M 120.585938 123.578125 " clip-rule="nonzero"/></clipPath><clipPath id="6d9986bd58"><path d="M 120.585938 123.578125 L 198.546875 201.535156 L 120.585938 279.496094 L 42.628906 201.535156 Z M 120.585938 123.578125 " clip-rule="nonzero"/></clipPath><clipPath id="012e55239b"><path d="M 42 194 L 53 194 L 53 209 L 42 209 Z M 42 194 " clip-rule="nonzero"/></clipPath><clipPath id="ce1576cc67"><path d="M 120.585938 123.578125 L 198.546875 201.535156 L 120.585938 279.496094 L 42.628906 201.535156 Z M 120.585938 123.578125 " clip-rule="nonzero"/></clipPath><clipPath id="69dc57da5c"><path d="M 120.585938 123.578125 L 198.546875 201.535156 L 120.585938 279.496094 L 42.628906 201.535156 Z M 120.585938 123.578125 " clip-rule="nonzero"/></clipPath><clipPath id="df70b3062a"><path d="M 120.585938 123.578125 L 198.546875 201.535156 L 120.585938 279.496094 L 42.628906 201.535156 Z M 120.585938 123.578125 " clip-rule="nonzero"/></clipPath><clipPath id="28c0a745e6"><path d="M 281 206 L 348 206 L 348 273 L 281 273 Z M 281 206 " clip-rule="nonzero"/></clipPath><clipPath id="3a39695750"><path d="M 276.273438 123.578125 L 354.230469 201.535156 L 276.273438 279.496094 L 198.3125 201.535156 Z M 276.273438 123.578125 " clip-rule="nonzero"/></clipPath><clipPath id="0f31d49285"><path d="M 276.273438 123.578125 L 354.230469 201.535156 L 276.273438 279.496094 L 198.3125 201.535156 Z M 276.273438 123.578125 " clip-rule="nonzero"/></clipPath><clipPath id="ad8d9428ec"><path d="M 205 130 L 272 130 L 272 197 L 205 197 Z M 205 130 " clip-rule="nonzero"/></clipPath><clipPath id="c8e359e756"><path d="M 276.273438 123.578125 L 354.230469 201.535156 L 276.273438 279.496094 L 198.3125 201.535156 Z M 276.273438 123.578125 " clip-rule="nonzero"/></clipPath><clipPath id="ed77320da4"><path d="M 276.273438 123.578125 L 354.230469 201.535156 L 276.273438 279.496094 L 198.3125 201.535156 Z M 276.273438 123.578125 " clip-rule="nonzero"/></clipPath><clipPath id="9369256bc6"><path d="M 281 130 L 348 130 L 348 197 L 281 197 Z M 281 130 " clip-rule="nonzero"/></clipPath><clipPath id="5563985a9f"><path d="M 276.273438 123.578125 L 354.230469 201.535156 L 276.273438 279.496094 L 198.3125 201.535156 Z M 276.273438 123.578125 " clip-rule="nonzero"/></clipPath><clipPath id="007727cb06"><path d="M 276.273438 123.578125 L 354.230469 201.535156 L 276.273438 279.496094 L 198.3125 201.535156 Z M 276.273438 123.578125 " clip-rule="nonzero"/></clipPath><clipPath id="18f1484753"><path d="M 205 206 L 272 206 L 272 273 L 205 273 Z M 205 206 " clip-rule="nonzero"/></clipPath><clipPath id="75f9e03871"><path d="M 276.273438 123.578125 L 354.230469 201.535156 L 276.273438 279.496094 L 198.3125 201.535156 Z M 276.273438 123.578125 " clip-rule="nonzero"/></clipPath><clipPath id="7dab86eaf7"><path d="M 276.273438 123.578125 L 354.230469 201.535156 L 276.273438 279.496094 L 198.3125 201.535156 Z M 276.273438 123.578125 " clip-rule="nonzero"/></clipPath><clipPath id="b9f3677f6f"><path d="M 344 194 L 355 194 L 355 209 L 344 209 Z M 344 194 " clip-rule="nonzero"/></clipPath><clipPath id="52229761e1"><path d="M 276.273438 123.578125 L 354.230469 201.535156 L 276.273438 279.496094 L 198.3125 201.535156 Z M 276.273438 123.578125 " clip-rule="nonzero"/></clipPath><clipPath id="21ff532e08"><path d="M 276.273438 123.578125 L 354.230469 201.535156 L 276.273438 279.496094 L 198.3125 201.535156 Z M 276.273438 123.578125 " clip-rule="nonzero"/></clipPath><clipPath id="f2bd9267e5"><path d="M 269 123 L 284 123 L 284 134 L 269 134 Z M 269 123 " clip-rule="nonzero"/></clipPath><clipPath id="e00320f211"><path d="M 276.273438 123.578125 L 354.230469 201.535156 L 276.273438 279.496094 L 198.3125 201.535156 Z M 276.273438 123.578125 " clip-rule="nonzero"/></clipPath><clipPath id="157249de7c"><path d="M 276.273438 123.578125 L 354.230469 201.535156 L 276.273438 279.496094 L 198.3125 201.535156 Z M 276.273438 123.578125 " clip-rule="nonzero"/></clipPath><clipPath id="f780fa5da8"><path d="M 269 269 L 284 269 L 284 280 L 269 280 Z M 269 269 " clip-rule="nonzero"/></clipPath><clipPath id="4d266a44c6"><path d="M 276.273438 123.578125 L 354.230469 201.535156 L 276.273438 279.496094 L 198.3125 201.535156 Z M 276.273438 123.578125 " clip-rule="nonzero"/></clipPath><clipPath id="f843860693"><path d="M 276.273438 123.578125 L 354.230469 201.535156 L 276.273438 279.496094 L 198.3125 201.535156 Z M 276.273438 123.578125 " clip-rule="nonzero"/></clipPath><clipPath id="8697f56605"><path d="M 198 194 L 208 194 L 208 209 L 198 209 Z M 198 194 " clip-rule="nonzero"/></clipPath><clipPath id="1c82a0a5bd"><path d="M 276.273438 123.578125 L 354.230469 201.535156 L 276.273438 279.496094 L 198.3125 201.535156 Z M 276.273438 123.578125 " clip-rule="nonzero"/></clipPath><clipPath id="199898de7e"><path d="M 276.273438 123.578125 L 354.230469 201.535156 L 276.273438 279.496094 L 198.3125 201.535156 Z M 276.273438 123.578125 " clip-rule="nonzero"/></clipPath><clipPath id="3943a7a304"><path d="M 262.898438 138.960938 L 291.121094 138.960938 L 291.121094 167.1875 L 262.898438 167.1875 Z M 262.898438 138.960938 " clip-rule="nonzero"/></clipPath><clipPath id="57e56f2982"><path d="M 277.007812 138.960938 C 269.214844 138.960938 262.898438 145.28125 262.898438 153.074219 C 262.898438 160.867188 269.214844 167.1875 277.007812 167.1875 C 284.804688 167.1875 291.121094 160.867188 291.121094 153.074219 C 291.121094 145.28125 284.804688 138.960938 277.007812 138.960938 Z M 277.007812 138.960938 " clip-rule="nonzero"/></clipPath><clipPath id="e33b8b2654"><path d="M 262.273438 207.496094 L 291.121094 207.496094 L 291.121094 236.347656 L 262.273438 236.347656 Z M 262.273438 207.496094 " clip-rule="nonzero"/></clipPath><clipPath id="0b5196a486"><path d="M 276.695312 207.496094 C 268.730469 207.496094 262.273438 213.957031 262.273438 221.921875 C 262.273438 229.886719 268.730469 236.347656 276.695312 236.347656 C 284.664062 236.347656 291.121094 229.886719 291.121094 221.921875 C 291.121094 213.957031 284.664062 207.496094 276.695312 207.496094 Z M 276.695312 207.496094 " clip-rule="nonzero"/></clipPath><clipPath id="254ba57fcb"><path d="M 261.960938 173.1875 L 290.585938 173.1875 L 290.585938 201.8125 L 261.960938 201.8125 Z M 261.960938 173.1875 " clip-rule="nonzero"/></clipPath><clipPath id="9da1708996"><path d="M 276.273438 173.1875 C 268.371094 173.1875 261.960938 179.59375 261.960938 187.5 C 261.960938 195.40625 268.371094 201.8125 276.273438 201.8125 C 284.179688 201.8125 290.585938 195.40625 290.585938 187.5 C 290.585938 179.59375 284.179688 173.1875 276.273438 173.1875 Z M 276.273438 173.1875 " clip-rule="nonzero"/></clipPath><clipPath id="b514c6fc6a"><path d="M 262.273438 242.347656 L 290.585938 242.347656 L 290.585938 270.660156 L 262.273438 270.660156 Z M 262.273438 242.347656 " clip-rule="nonzero"/></clipPath><clipPath id="f9eba815ef"><path d="M 276.429688 242.347656 C 268.609375 242.347656 262.273438 248.683594 262.273438 256.503906 C 262.273438 264.324219 268.609375 270.660156 276.429688 270.660156 C 284.25 270.660156 290.585938 264.324219 290.585938 256.503906 C 290.585938 248.683594 284.25 242.347656 276.429688 242.347656 Z M 276.429688 242.347656 " clip-rule="nonzero"/></clipPath></defs><g clip-path="url(#3fe8c2fb9d)"><g clip-path="url(#3ed6ab00d6)"><g clip-path="url(#5493fc6755)"><path fill="#000000" d="M 107.824219 116.351562 L 187.375 195.902344 L 107.824219 275.449219 L 28.277344 195.902344 Z M 107.824219 116.351562 " fill-opacity="1" fill-rule="nonzero"/></g></g></g><g clip-path="url(#78b7a5c517)"><g clip-path="url(#f3b6fa8196)"><g clip-path="url(#f745ffba22)"><path fill="#ffffff" d="M 267.050781 116.351562 L 346.597656 195.902344 L 267.050781 275.449219 L 187.5 195.902344 Z M 267.050781 116.351562 " fill-opacity="1" fill-rule="nonzero"/></g></g></g><g clip-path="url(#5711053f88)"><g clip-path="url(#488471f1a4)"><g clip-path="url(#adce473842)"><g clip-path="url(#408cfd08b4)"><path fill="#ffffff" d="M 189.074219 206.351562 L 191.402344 208.679688 L 127.730469 272.351562 L 125.402344 270.023438 Z M 189.074219 206.351562 " fill-opacity="1" fill-rule="nonzero"/></g></g></g></g><g clip-path="url(#83aa92be60)"><g clip-path="url(#01c64bb826)"><g clip-path="url(#db694fae1d)"><g clip-path="url(#cd371f16d6)"><path fill="#ffffff" d="M 113.445312 130.722656 L 115.773438 133.050781 L 52.101562 196.722656 L 49.773438 194.394531 Z M 113.445312 130.722656 " fill-opacity="1" fill-rule="nonzero"/></g></g></g></g><g clip-path="url(#e4a2e918a3)"><g clip-path="url(#d766b89f18)"><g clip-path="url(#a44863bbad)"><g clip-path="url(#d7d873134c)"><path fill="#ffffff" d="M 127.730469 130.722656 L 191.402344 194.394531 L 189.074219 196.722656 L 125.402344 133.050781 Z M 127.730469 130.722656 " fill-opacity="1" fill-rule="nonzero"/></g></g></g></g><g clip-path="url(#b238ae3dd7)"><g clip-path="url(#eda4501978)"><g clip-path="url(#90be4aa3ff)"><g clip-path="url(#e289760ba2)"><path fill="#ffffff" d="M 52.101562 206.351562 L 115.773438 270.023438 L 113.445312 272.351562 L 49.773438 208.679688 Z M 52.101562 206.351562 " fill-opacity="1" fill-rule="nonzero"/></g></g></g></g><g clip-path="url(#7bbea8c271)"><g clip-path="url(#e2db8fe41c)"><g clip-path="url(#c7b9595155)"><g clip-path="url(#5e5dfec000)"><path fill="#ffffff" d="M 193.886719 201.535156 L 189.074219 206.351562 L 191.402344 208.679688 L 198.546875 201.535156 L 191.402344 194.394531 L 189.074219 196.722656 Z M 193.886719 201.535156 " fill-opacity="1" fill-rule="nonzero"/></g></g></g></g><g clip-path="url(#96e5def254)"><g clip-path="url(#fe36b7a4d1)"><g clip-path="url(#368f8bd4a9)"><g clip-path="url(#e9f2133b47)"><path fill="#ffffff" d="M 120.585938 128.238281 L 125.402344 133.050781 L 127.730469 130.722656 L 120.585938 123.578125 L 113.445312 130.722656 L 115.773438 133.050781 Z M 120.585938 128.238281 " fill-opacity="1" fill-rule="nonzero"/></g></g></g></g><g clip-path="url(#0d5f4dc2bb)"><g clip-path="url(#fc2f350c95)"><g clip-path="url(#654281bf24)"><g clip-path="url(#6d9986bd58)"><path fill="#ffffff" d="M 120.585938 274.835938 L 115.773438 270.023438 L 113.445312 272.351562 L 120.585938 279.496094 L 127.730469 272.351562 L 125.402344 270.023438 Z M 120.585938 274.835938 " fill-opacity="1" fill-rule="nonzero"/></g></g></g></g><g clip-path="url(#012e55239b)"><g clip-path="url(#ce1576cc67)"><g clip-path="url(#69dc57da5c)"><g clip-path="url(#df70b3062a)"><path fill="#ffffff" d="M 47.289062 201.535156 L 52.101562 196.722656 L 49.773438 194.394531 L 42.628906 201.535156 L 49.773438 208.679688 L 52.101562 206.351562 Z M 47.289062 201.535156 " fill-opacity="1" fill-rule="nonzero"/></g></g></g></g><g fill="#ffffff" fill-opacity="1"><g transform="translate(94.969826, 233.901209)"><g><path d="M 24.328125 -60.515625 L 24.328125 -41.859375 L 49.5 -41.859375 L 49.5 -28.671875 L 24.328125 -28.671875 L 24.328125 0 L 7.125 0 L 7.125 -73.671875 L 54.5625 -73.671875 L 54.5625 -60.515625 Z M 24.328125 -60.515625 "/></g></g></g><g clip-path="url(#28c0a745e6)"><g clip-path="url(#3a39695750)"><g clip-path="url(#0f31d49285)"><path fill="#000000" d="M 344.722656 206.308594 L 347.050781 208.636719 L 283.414062 272.273438 L 281.085938 269.945312 Z M 344.722656 206.308594 " fill-opacity="1" fill-rule="nonzero"/></g></g></g><g clip-path="url(#ad8d9428ec)"><g clip-path="url(#c8e359e756)"><g clip-path="url(#ed77320da4)"><path fill="#000000" d="M 269.132812 130.71875 L 271.460938 133.046875 L 207.824219 196.683594 L 205.496094 194.355469 Z M 269.132812 130.71875 " fill-opacity="1" fill-rule="nonzero"/></g></g></g><g clip-path="url(#9369256bc6)"><g clip-path="url(#5563985a9f)"><g clip-path="url(#007727cb06)"><path fill="#000000" d="M 283.414062 130.71875 L 347.050781 194.355469 L 344.722656 196.683594 L 281.085938 133.046875 Z M 283.414062 130.71875 " fill-opacity="1" fill-rule="nonzero"/></g></g></g><g clip-path="url(#18f1484753)"><g clip-path="url(#75f9e03871)"><g clip-path="url(#7dab86eaf7)"><path fill="#000000" d="M 207.824219 206.308594 L 271.460938 269.945312 L 269.132812 272.273438 L 205.496094 208.636719 Z M 207.824219 206.308594 " fill-opacity="1" fill-rule="nonzero"/></g></g></g><g clip-path="url(#b9f3677f6f)"><g clip-path="url(#52229761e1)"><g clip-path="url(#21ff532e08)"><path fill="#000000" d="M 349.535156 201.496094 L 344.722656 206.308594 L 347.050781 208.636719 L 354.191406 201.496094 L 347.050781 194.355469 L 344.722656 196.683594 Z M 349.535156 201.496094 " fill-opacity="1" fill-rule="nonzero"/></g></g></g><g clip-path="url(#f2bd9267e5)"><g clip-path="url(#e00320f211)"><g clip-path="url(#157249de7c)"><path fill="#000000" d="M 276.273438 128.234375 L 281.085938 133.046875 L 283.414062 130.71875 L 276.273438 123.578125 L 269.132812 130.71875 L 271.460938 133.046875 Z M 276.273438 128.234375 " fill-opacity="1" fill-rule="nonzero"/></g></g></g><g clip-path="url(#f780fa5da8)"><g clip-path="url(#4d266a44c6)"><g clip-path="url(#f843860693)"><path fill="#000000" d="M 276.273438 274.757812 L 271.460938 269.945312 L 269.132812 272.273438 L 276.273438 279.414062 L 283.414062 272.273438 L 281.085938 269.945312 Z M 276.273438 274.757812 " fill-opacity="1" fill-rule="nonzero"/></g></g></g><g clip-path="url(#8697f56605)"><g clip-path="url(#1c82a0a5bd)"><g clip-path="url(#199898de7e)"><path fill="#000000" d="M 203.011719 201.496094 L 207.824219 196.683594 L 205.496094 194.355469 L 198.355469 201.496094 L 205.496094 208.636719 L 207.824219 206.308594 Z M 203.011719 201.496094 " fill-opacity="1" fill-rule="nonzero"/></g></g></g><g clip-path="url(#3943a7a304)"><g clip-path="url(#57e56f2982)"><path fill="#000000" d="M 262.898438 138.960938 L 291.121094 138.960938 L 291.121094 167.1875 L 262.898438 167.1875 Z M 262.898438 138.960938 " fill-opacity="1" fill-rule="nonzero"/></g></g><g fill="#ffffff" fill-opacity="1"><g transform="translate(273.004952, 159.218959)"><g><path d="M 8.703125 -7.796875 C 8.410156 -8.304688 8.039062 -8.679688 7.59375 -8.921875 C 7.15625 -9.160156 6.648438 -9.28125 6.078125 -9.28125 C 5.628906 -9.28125 5.207031 -9.1875 4.8125 -9 C 4.425781 -8.8125 4.085938 -8.546875 3.796875 -8.203125 C 3.503906 -7.867188 3.273438 -7.457031 3.109375 -6.96875 C 2.941406 -6.476562 2.859375 -5.929688 2.859375 -5.328125 C 2.859375 -4.734375 2.941406 -4.195312 3.109375 -3.71875 C 3.273438 -3.238281 3.503906 -2.828125 3.796875 -2.484375 C 4.097656 -2.148438 4.441406 -1.894531 4.828125 -1.71875 C 5.210938 -1.539062 5.628906 -1.453125 6.078125 -1.453125 C 6.734375 -1.453125 7.300781 -1.609375 7.78125 -1.921875 C 8.269531 -2.242188 8.65625 -2.710938 8.9375 -3.328125 L 10.515625 -2.546875 C 10.316406 -2.109375 10.066406 -1.710938 9.765625 -1.359375 C 9.460938 -1.015625 9.117188 -0.71875 8.734375 -0.46875 C 8.359375 -0.226562 7.941406 -0.0390625 7.484375 0.09375 C 7.035156 0.226562 6.554688 0.296875 6.046875 0.296875 C 5.304688 0.296875 4.625 0.160156 4 -0.109375 C 3.375 -0.390625 2.832031 -0.78125 2.375 -1.28125 C 1.925781 -1.78125 1.570312 -2.375 1.3125 -3.0625 C 1.0625 -3.757812 0.9375 -4.515625 0.9375 -5.328125 C 0.9375 -6.148438 1.070312 -6.90625 1.34375 -7.59375 C 1.613281 -8.289062 1.976562 -8.882812 2.4375 -9.375 C 2.90625 -9.875 3.445312 -10.265625 4.0625 -10.546875 C 4.6875 -10.828125 5.359375 -10.96875 6.078125 -10.96875 C 6.742188 -10.96875 7.375 -10.847656 7.96875 -10.609375 C 8.570312 -10.378906 9.097656 -10.03125 9.546875 -9.5625 L 10.625 -9.5625 L 10.625 -7.796875 Z M 8.703125 -7.796875 "/></g></g></g><g fill="#ffffff" fill-opacity="1"><g transform="translate(284.474033, 159.218959)"><g><path d="M 0 0 Z M 0 0 "/></g></g></g><g clip-path="url(#e33b8b2654)"><g clip-path="url(#0b5196a486)"><path fill="#000000" d="M 262.273438 207.496094 L 291.121094 207.496094 L 291.121094 236.347656 L 262.273438 236.347656 Z M 262.273438 207.496094 " fill-opacity="1" fill-rule="nonzero"/></g></g><g fill="#ffffff" fill-opacity="1"><g transform="translate(271.232752, 229.448646)"><g><path d="M 0.203125 -10.859375 L 3.96875 -10.859375 L 3.96875 -9.0625 L 2.953125 -9.0625 L 5.625 -1.578125 L 8.25 -9.0625 L 7.59375 -9.0625 L 7.59375 -10.859375 L 11.03125 -10.859375 L 11.03125 -9.0625 L 10.09375 -9.0625 L 6.546875 0.171875 L 4.609375 0.171875 L 1.0625 -9.0625 L 0.203125 -9.0625 Z M 0.203125 -10.859375 "/></g></g></g><g clip-path="url(#254ba57fcb)"><g clip-path="url(#9da1708996)"><path fill="#000000" d="M 261.960938 173.1875 L 290.585938 173.1875 L 290.585938 201.8125 L 261.960938 201.8125 Z M 261.960938 173.1875 " fill-opacity="1" fill-rule="nonzero"/></g></g><g fill="#ffffff" fill-opacity="1"><g transform="translate(269.898995, 193.162744)"><g><path d="M 0.890625 -5.390625 C 0.898438 -6.242188 1.035156 -7.019531 1.296875 -7.71875 C 1.566406 -8.414062 1.941406 -9.015625 2.421875 -9.515625 C 2.898438 -10.023438 3.46875 -10.414062 4.125 -10.6875 C 4.789062 -10.957031 5.519531 -11.09375 6.3125 -11.09375 C 7.101562 -11.09375 7.828125 -10.957031 8.484375 -10.6875 C 9.148438 -10.414062 9.71875 -10.03125 10.1875 -9.53125 C 10.664062 -9.039062 11.035156 -8.441406 11.296875 -7.734375 C 11.566406 -7.035156 11.703125 -6.257812 11.703125 -5.40625 C 11.703125 -4.570312 11.566406 -3.800781 11.296875 -3.09375 C 11.035156 -2.394531 10.664062 -1.789062 10.1875 -1.28125 C 9.71875 -0.769531 9.148438 -0.375 8.484375 -0.09375 C 7.828125 0.1875 7.101562 0.328125 6.3125 0.328125 C 5.5 0.328125 4.757812 0.1875 4.09375 -0.09375 C 3.4375 -0.375 2.875 -0.765625 2.40625 -1.265625 C 1.9375 -1.765625 1.566406 -2.363281 1.296875 -3.0625 C 1.035156 -3.769531 0.898438 -4.546875 0.890625 -5.390625 Z M 2.9375 -5.390625 C 2.9375 -4.773438 3.023438 -4.21875 3.203125 -3.71875 C 3.378906 -3.21875 3.625 -2.789062 3.9375 -2.4375 C 4.25 -2.09375 4.609375 -1.820312 5.015625 -1.625 C 5.421875 -1.4375 5.851562 -1.34375 6.3125 -1.34375 C 6.789062 -1.34375 7.234375 -1.4375 7.640625 -1.625 C 8.054688 -1.8125 8.414062 -2.078125 8.71875 -2.421875 C 9.019531 -2.773438 9.257812 -3.203125 9.4375 -3.703125 C 9.613281 -4.203125 9.703125 -4.765625 9.703125 -5.390625 C 9.703125 -6.046875 9.613281 -6.625 9.4375 -7.125 C 9.257812 -7.632812 9.019531 -8.054688 8.71875 -8.390625 C 8.414062 -8.734375 8.054688 -8.988281 7.640625 -9.15625 C 7.234375 -9.332031 6.789062 -9.421875 6.3125 -9.421875 C 5.851562 -9.421875 5.421875 -9.332031 5.015625 -9.15625 C 4.609375 -8.988281 4.25 -8.734375 3.9375 -8.390625 C 3.625 -8.054688 3.378906 -7.632812 3.203125 -7.125 C 3.023438 -6.625 2.9375 -6.046875 2.9375 -5.390625 Z M 2.9375 -5.390625 "/></g></g></g><g clip-path="url(#b514c6fc6a)"><g clip-path="url(#f9eba815ef)"><path fill="#000000" d="M 262.273438 242.347656 L 290.585938 242.347656 L 290.585938 270.660156 L 262.273438 270.660156 Z M 262.273438 242.347656 " fill-opacity="1" fill-rule="nonzero"/></g></g><g fill="#ffffff" fill-opacity="1"><g transform="translate(270.372929, 262.105151)"><g><path d="M 2.84375 -5.078125 C 2.84375 -4.773438 2.863281 -4.5 2.90625 -4.25 C 2.945312 -4 3.007812 -3.765625 3.09375 -3.546875 C 3.351562 -2.859375 3.757812 -2.335938 4.3125 -1.984375 C 4.875 -1.640625 5.507812 -1.46875 6.21875 -1.46875 C 6.769531 -1.46875 7.304688 -1.546875 7.828125 -1.703125 C 8.359375 -1.859375 8.910156 -2.097656 9.484375 -2.421875 L 10.265625 -1.125 C 9.566406 -0.644531 8.863281 -0.285156 8.15625 -0.046875 C 7.445312 0.179688 6.710938 0.296875 5.953125 0.296875 C 5.234375 0.296875 4.566406 0.175781 3.953125 -0.0625 C 3.335938 -0.300781 2.804688 -0.65625 2.359375 -1.125 C 1.921875 -1.601562 1.578125 -2.195312 1.328125 -2.90625 C 1.078125 -3.613281 0.953125 -4.4375 0.953125 -5.375 C 0.953125 -6.132812 1.054688 -6.851562 1.265625 -7.53125 C 1.472656 -8.207031 1.785156 -8.796875 2.203125 -9.296875 C 2.628906 -9.804688 3.15625 -10.207031 3.78125 -10.5 C 4.40625 -10.789062 5.132812 -10.9375 5.96875 -10.9375 C 6.769531 -10.9375 7.441406 -10.8125 7.984375 -10.5625 C 8.523438 -10.320312 8.960938 -10 9.296875 -9.59375 C 9.640625 -9.195312 9.894531 -8.742188 10.0625 -8.234375 C 10.238281 -7.722656 10.363281 -7.195312 10.4375 -6.65625 C 10.46875 -6.394531 10.488281 -6.128906 10.5 -5.859375 C 10.507812 -5.597656 10.515625 -5.335938 10.515625 -5.078125 Z M 5.828125 -9.328125 C 5.390625 -9.328125 5.003906 -9.265625 4.671875 -9.140625 C 4.335938 -9.015625 4.050781 -8.832031 3.8125 -8.59375 C 3.582031 -8.363281 3.394531 -8.078125 3.25 -7.734375 C 3.113281 -7.390625 3.007812 -7.003906 2.9375 -6.578125 L 8.46875 -6.578125 C 8.4375 -6.972656 8.367188 -7.335938 8.265625 -7.671875 C 8.171875 -8.015625 8.019531 -8.304688 7.8125 -8.546875 C 7.613281 -8.796875 7.351562 -8.988281 7.03125 -9.125 C 6.707031 -9.257812 6.304688 -9.328125 5.828125 -9.328125 Z M 5.828125 -9.328125 "/></g></g></g></svg>